<?xml version="1.0" standalone="no"?><!DOCTYPE svg PUBLIC "-//W3C//DTD SVG 1.1//EN" "http://www.w3.org/Graphics/SVG/1.1/DTD/svg11.dtd"><svg t="1599230323553" class="icon" viewBox="0 0 1089 1024" version="1.1" xmlns="http://www.w3.org/2000/svg" p-id="2907" xmlns:xlink="http://www.w3.org/1999/xlink" width="212.6953125" height="200"><defs><style type="text/css"></style></defs><path d="M1048.460073 941.849018h-20.483268a95.334362 95.334362 0 0 0 1.307442-15.362451V360.527318A97.622387 97.622387 0 0 0 931.552907 262.959408h-193.447039a96.532851 96.532851 0 0 0-15.416928 1.36192V97.676863a97.622387 97.622387 0 0 0-97.513433-97.676863H168.878012a97.622387 97.622387 0 0 0-97.513433 97.513433v828.973134a95.334362 95.334362 0 0 0 1.307443 15.362451h-31.596531a41.075491 41.075491 0 1 0 0 82.150982h1007.384582a41.075491 41.075491 0 0 0 0-82.150982z m-879.582061 0a15.416928 15.416928 0 0 1-15.416928-15.362451V97.676863A15.416928 15.416928 0 0 1 168.878012 82.314412h456.460925a15.416928 15.416928 0 0 1 15.416928 15.362451v828.809704a15.416928 15.416928 0 0 1-15.416928 15.362451z m569.391286 0a15.416928 15.416928 0 0 1-15.416928-15.362451V360.527318a15.416928 15.416928 0 0 1 15.416928-15.416928H931.552907a15.416928 15.416928 0 0 1 15.416929 15.416928v565.959249a15.416928 15.416928 0 0 1-15.416929 15.362451z" p-id="2908" fill="#ffffff"></path><path d="M539.320104 197.260414H238.172474a41.075491 41.075491 0 0 0 0 82.150981H539.320104a41.075491 41.075491 0 1 0 0-82.150981zM539.320104 399.859552H238.172474a41.075491 41.075491 0 1 0 0 82.096505H539.320104a41.075491 41.075491 0 1 0 0-82.096505zM539.320104 602.404213H238.172474a41.075491 41.075491 0 0 0 0 82.150982H539.320104a41.075491 41.075491 0 1 0 0-82.150982z" p-id="2909" fill="#ffffff"></path></svg>