<?xml version="1.0" standalone="no"?><!DOCTYPE svg PUBLIC "-//W3C//DTD SVG 1.1//EN" "http://www.w3.org/Graphics/SVG/1.1/DTD/svg11.dtd"><svg t="1599230371929" class="icon" viewBox="0 0 1024 1024" version="1.1" xmlns="http://www.w3.org/2000/svg" p-id="3756" xmlns:xlink="http://www.w3.org/1999/xlink" width="200" height="200"><defs><style type="text/css"></style></defs><path d="M803.744 557.152c-7.332-41.303-47.148-72.274-112.168-87.224-30.031-6.888-65.855-10.097-105.541-9.289v-7.54c69.926-14.977 120.23-76.84 120.23-148.801 0-83.963-68.334-152.297-152.297-152.297s-152.297 68.334-152.297 152.297c0 71.961 50.305 133.824 120.23 148.801v12.107c-11.219 1.305-22.83 2.635-34.493 4.697-74.387 13.176-142.461 38.094-191.748 70.108-55.914 36.372-82.711 79.162-75.405 120.465 7.958 44.852 53.357 76.97 127.849 90.434 14.637 2.505 28.44-7.253 31.023-21.526 1.252-7.045-0.287-14.142-4.357-20.012-4.044-5.871-10.176-9.784-17.194-11.063-47.904-8.636-81.145-27.161-84.668-47.174-3.209-18.029 16.673-43.443 51.896-66.299 43.39-28.231 104.471-50.357 171.944-62.281 8.141-1.461 16.151-2.4 24.161-3.366l0.991-0.13v176.928c-5.584 0.913-11.193 1.67-17.194 2.453l0.704-57.871-116.238 89.521 114.177 79.449 0.704-57.01c5.897-0.757 11.846-1.644 17.847-2.583V872h64.133V736.897c55.471-14.272 104.602-34.728 142.304-59.28 55.917-36.372 82.713-79.136 75.407-120.465z m-104.523 75.639c-30.058 19.543-69.065 36.372-113.186 48.844V514.022c35.276-0.704 67.264 1.931 93.565 8.01 40.912 9.393 68.308 26.431 71.491 44.46 3.209 18.03-16.672 43.443-51.87 66.299z" fill="#ffffff" p-id="3757"></path></svg>