<?xml version="1.0" standalone="no"?><!DOCTYPE svg PUBLIC "-//W3C//DTD SVG 1.1//EN" "http://www.w3.org/Graphics/SVG/1.1/DTD/svg11.dtd"><svg t="1599229336033" class="icon" viewBox="0 0 1025 1024" version="1.1" xmlns="http://www.w3.org/2000/svg" p-id="1861" xmlns:xlink="http://www.w3.org/1999/xlink" width="200.1953125" height="200"><defs><style type="text/css"></style></defs><path d="M384 192c0 70.72 57.28 128 128 128s128-57.28 128-128c0-70.72-57.28-128-128-128S384 121.28 384 192zM512 128c35.264 0 64 28.736 64 64s-28.736 64-64 64-64-28.736-64-64S476.736 128 512 128zM512 384c-70.72 0-128 57.28-128 128 0 70.72 57.28 128 128 128s128-57.28 128-128C640 441.28 582.72 384 512 384zM512 576c-35.264 0-64-28.736-64-64s28.736-64 64-64 64 28.736 64 64S547.264 576 512 576zM640 832c0-70.72-57.28-128-128-128s-128 57.28-128 128c0 70.72 57.28 128 128 128S640 902.72 640 832zM512 896c-35.264 0-64-28.736-64-64s28.736-64 64-64 64 28.736 64 64S547.264 896 512 896zM768.32 768 768.32 576l255.68-128L768.32 448 768.32 256l255.68-128L768.32 128 768.32 0 256.32 0l0 128-256.32 0L256.32 256l0 192-256.32 0L256.32 576l0 192-256.32 0L256.32 896l0 128 512 0 0-128 255.68-128L768.32 768zM704.32 960 512 960 320.32 960 320.32 64l191.68 0L704.32 64 704.32 960z" p-id="1862" fill="#ffffff"></path></svg>